# xmcd
#
# Track frame offsets: 
#        150
#        27439
#        50647
#        73534
#        101494
#        123166
#        147143
#        169595
#        185176
#        204231
#        223463
#        236200
#
# Disc length: 3316 seconds
#
# Revision: 1
# Processed by: cddbd v1.5.2PL0 Copyright (c) Steve Scherf et al.
# Submitted via: ExactAudioCopyFreeDBPlugin 1.0
#
DISCID=b70cf20c
DTITLE=Elina Duni Quartet - Dallendyshe
DYEAR=2015
DGENRE=Jazz
TTITLE0=Fëllënza
TTITLE1=Sytë
TTITLE2=Ylberin
TTITLE3=Unë Në Kodër, Ti Në Kodër
TTITLE4=Kur Të Pashë
TTITLE5=Delja Rude
TTITLE6=Unë Do Të Vete
TTITLE7=Taksirat
TTITLE8=Nënë Moj
TTITLE9=Bukuroshe
TTITLE10=Ti Ri Ti Ti Klarinatë
TTITLE11=Dallëndyshe
EXTD=YEAR: 2015
EXTT0=
EXTT1=
EXTT2=
EXTT3=
EXTT4=
EXTT5=
EXTT6=
EXTT7=
EXTT8=
EXTT9=
EXTT10=
EXTT11=
PLAYORDER=
